<?xml version="1.0" standalone="no"?>
<!DOCTYPE svg PUBLIC "-//W3C//DTD SVG 20010904//EN"
 "http://www.w3.org/TR/2001/REC-SVG-20010904/DTD/svg10.dtd">
<svg version="1.0" xmlns="http://www.w3.org/2000/svg"
 width="512.000000pt" height="512.000000pt" viewBox="0 0 512.000000 512.000000"
 preserveAspectRatio="xMidYMid meet">
<metadata>
Created by potrace 1.14, written by Peter Selinger 2001-2017
</metadata>
<g transform="translate(0.000000,512.000000) scale(0.100000,-0.100000)"
fill="#000000" stroke="none">
<path d="M2320 5109 c-729 -72 -1379 -439 -1815 -1024 -264 -355 -417 -728
-486 -1190 -18 -116 -18 -528 -1 -650 84 -593 330 -1094 735 -1497 366 -364
834 -611 1331 -702 854 -157 1702 111 2303 727 559 574 810 1329 707 2127 -94
726 -504 1380 -1128 1798 -303 203 -708 353 -1086 402 -117 15 -444 21 -560 9z
m-383 -1513 c18 -17 196 -495 253 -677 122 -394 375 -1148 399 -1191 14 -26
23 -49 21 -51 -16 -14 -535 -177 -549 -172 -18 5 -85 179 -124 320 -11 41 -19
50 -43 57 -16 4 -149 7 -295 7 l-267 0 -17 -47 c-48 -129 -138 -331 -150 -336
-19 -7 -167 53 -285 116 -127 67 -123 63 -101 106 10 21 34 80 55 133 l36 96
-39 65 c-53 88 -91 180 -98 239 l-6 49 124 0 c68 0 134 3 146 6 18 5 40 50
122 258 54 138 123 319 151 401 76 217 208 522 234 540 30 22 193 73 284 89
80 15 129 12 149 -8z m1643 -586 l335 -604 5 529 c5 562 6 569 53 580 12 3 98
23 190 45 93 22 181 40 197 40 38 0 43 -20 30 -106 -6 -38 -15 -325 -20 -639
-5 -313 -12 -687 -16 -830 l-7 -260 -26 -26 c-24 -23 -376 -239 -390 -239 -3
0 -96 138 -206 308 -368 567 -426 654 -429 651 -2 -2 -16 -179 -31 -394 -15
-214 -31 -400 -36 -411 -8 -23 -79 -54 -275 -120 -110 -37 -155 -42 -173 -20
-10 11 -4 109 23 433 34 393 66 831 81 1094 l7 117 -57 107 c-49 90 -55 109
-44 120 8 8 102 64 209 125 130 73 203 109 220 108 22 -3 65 -75 360 -608z"/>
<path d="M1678 2890 c-88 -265 -189 -578 -188 -587 0 -10 39 -13 160 -13 88 0
160 2 160 5 0 2 -18 82 -41 177 -22 95 -51 232 -63 303 -13 72 -26 123 -28
115z"/>
</g>
</svg>
