<?xml version="1.0" standalone="no"?>
<!DOCTYPE svg PUBLIC "-//W3C//DTD SVG 20010904//EN"
 "http://www.w3.org/TR/2001/REC-SVG-20010904/DTD/svg10.dtd">
<svg version="1.0" xmlns="http://www.w3.org/2000/svg"
 width="512.000000pt" height="512.000000pt" viewBox="0 0 512.000000 512.000000"
 preserveAspectRatio="xMidYMid meet">
<metadata>
Created by potrace 1.14, written by Peter Selinger 2001-2017
</metadata>
<g transform="translate(0.000000,512.000000) scale(0.100000,-0.100000)"
fill="#000000" stroke="none">
<path d="M2320 5109 c-729 -72 -1379 -439 -1815 -1024 -264 -355 -417 -728
-486 -1190 -18 -116 -18 -528 -1 -650 84 -593 330 -1094 735 -1497 366 -364
834 -611 1331 -702 854 -157 1702 111 2303 727 559 574 810 1329 707 2127 -94
726 -504 1380 -1128 1798 -303 203 -708 353 -1086 402 -117 15 -444 21 -560 9z
m1216 -2277 l679 -714 3 676 2 676 110 0 110 0 0 -957 -1 -958 -42 47 c-23 26
-332 351 -687 723 l-645 676 -3 -675 -2 -676 -110 0 -110 0 0 951 c0 523 4
949 8 947 4 -1 314 -324 688 -716z m-1671 629 c354 -105 602 -393 656 -761 15
-107 6 -279 -21 -388 -79 -323 -328 -574 -655 -663 -106 -29 -344 -32 -447 -6
-402 101 -665 404 -707 814 -31 303 73 594 282 790 114 108 275 192 432 227
103 23 364 16 460 -13z"/>
<path d="M1432 3251 c-252 -62 -447 -274 -498 -539 -69 -359 111 -707 427
-826 123 -46 286 -55 419 -24 25 6 81 27 125 48 267 123 421 416 386 734 -20
180 -81 307 -205 432 -134 134 -285 194 -486 193 -55 0 -125 -8 -168 -18z"/>
</g>
</svg>
